Normalized EMG Linear Envelopes
nRows=114
nColumns=4

endheader
time	 med_gas_r	  soleus_r	 tib_ant_r	
3.14919	  0.004130	  0.005538	  0.001723	
3.22077	  0.004195	  0.005585	  0.001668	
3.29234	  0.004138	  0.005636	  0.001636	
3.36391	  0.003944	  0.005635	  0.001625	
3.43548	  0.003647	  0.005547	  0.001604	
3.50706	  0.003424	  0.005430	  0.001564	
3.57863	  0.003353	  0.005502	  0.001539	
3.6502	  0.003376	  0.005803	  0.001547	
3.72177	  0.003407	  0.006187	  0.001596	
3.79335	  0.003425	  0.006406	  0.001657	
3.86492	  0.003459	  0.006320	  0.001711	
3.93649	  0.003517	  0.006090	  0.001732	
4.00806	  0.003442	  0.005951	  0.001715	
4.07964	  0.003272	  0.005932	  0.001704	
4.15121	  0.003154	  0.005937	  0.001704	
4.22278	  0.003170	  0.005930	  0.001697	
4.29435	  0.003311	  0.005846	  0.001668	
4.36593	  0.003387	  0.005747	  0.001636	
4.4375	  0.003352	  0.005702	  0.001606	
4.50907	  0.003355	  0.005702	  0.001574	
4.58065	  0.003459	  0.005726	  0.001571	
4.65222	  0.003613	  0.005626	  0.001595	
4.72379	  0.003776	  0.005463	  0.001606	
4.79536	  0.003876	  0.005330	  0.001619	
4.86694	  0.003861	  0.005267	  0.001643	
4.93851	  0.003759	  0.005261	  0.001648	
5.01008	  0.003624	  0.005346	  0.001651	
5.08165	  0.003485	  0.005462	  0.001656	
5.15323	  0.003469	  0.005519	  0.001678	
5.2248	  0.003553	  0.005644	  0.001733	
5.29637	  0.003752	  0.005981	  0.001796	
5.36794	  0.003928	  0.006257	  0.001806	
5.43952	  0.003671	  0.005808	  0.001748	
5.51109	  0.002367	  0.003776	  0.001591	
5.58266	 -0.000600	 -0.000664	  0.001318	
5.65423	 -0.004920	 -0.006988	  0.000991	
5.72581	 -0.007584	 -0.010558	  0.000863	
5.79738	 -0.000704	  0.000698	  0.001579	
5.86895	  0.029286	  0.047173	  0.004180	
5.94052	  0.096375	  0.148273	  0.009658	
6.0121	  0.194564	  0.291293	  0.017088	
6.08367	  0.278410	  0.397889	  0.021921	
6.15524	  0.326255	  0.435020	  0.023488	
6.22681	  0.346161	  0.432623	  0.023716	
6.29839	  0.346790	  0.427380	  0.022576	
6.36996	  0.351116	  0.426273	  0.021393	
6.44153	  0.365484	  0.427022	  0.021472	
6.5131	  0.369541	  0.428123	  0.021753	
6.58468	  0.357752	  0.426783	  0.021359	
6.65625	  0.358125	  0.434368	  0.021114	
6.72782	  0.388958	  0.460663	  0.021708	
6.7994	  0.434572	  0.503904	  0.023365	
6.87097	  0.476217	  0.543513	  0.025671	
6.94254	  0.491683	  0.553841	  0.026672	
7.01411	  0.483804	  0.545426	  0.026332	
7.08569	  0.483797	  0.550163	  0.026754	
7.15726	  0.519405	  0.576448	  0.029221	
7.22883	  0.588803	  0.618780	  0.033198	
7.3004	  0.666129	  0.658730	  0.037555	
7.37198	  0.729255	  0.669598	  0.039817	
7.44355	  0.764112	  0.642330	  0.038310	
7.51512	  0.781718	  0.595305	  0.035212	
7.58669	  0.791117	  0.564020	  0.032969	
7.65827	  0.783480	  0.564262	  0.032426	
7.72984	  0.769630	  0.596772	  0.034184	
7.80141	  0.770201	  0.630915	  0.036526	
7.87298	  0.780292	  0.658114	  0.038250	
7.94456	  0.762509	  0.673490	  0.039231	
8.01613	  0.723591	  0.678236	  0.040291	
8.0877	  0.696562	  0.672336	  0.040886	
8.15927	  0.693206	  0.643316	  0.041403	
8.23085	  0.703156	  0.607805	  0.041775	
8.30242	  0.713984	  0.581777	  0.041608	
8.37399	  0.720719	  0.586540	  0.041354	
8.44556	  0.737171	  0.615839	  0.041435	
8.51714	  0.766112	  0.656442	  0.041742	
8.58871	  0.797819	  0.692663	  0.042385	
8.66028	  0.814080	  0.707508	  0.042285	
8.73185	  0.810977	  0.695041	  0.040613	
8.80343	  0.803017	  0.684818	  0.040315	
8.875	  0.790325	  0.690485	  0.041530	
8.94657	  0.767574	  0.707688	  0.043282	
9.01815	  0.776184	  0.740595	  0.045149	
9.08972	  0.806781	  0.776395	  0.046465	
9.16129	  0.832760	  0.780714	  0.047014	
9.23286	  0.818241	  0.782717	  0.048701	
9.30444	  0.781059	  0.802498	  0.050067	
9.37601	  0.749118	  0.817124	  0.048735	
9.44758	  0.723180	  0.807060	  0.046737	
9.51915	  0.708741	  0.784094	  0.044708	
9.59073	  0.699130	  0.761094	  0.042687	
9.6623	  0.691963	  0.754025	  0.040856	
9.73387	  0.708016	  0.747726	  0.040204	
9.80544	  0.760413	  0.743394	  0.042305	
9.87702	  0.805192	  0.763460	  0.045490	
9.94859	  0.807720	  0.801279	  0.047101	
10.0202	  0.781634	  0.822758	  0.047591	
10.0917	  0.754630	  0.827634	  0.048260	
10.1633	  0.747888	  0.827742	  0.048427	
10.2349	  0.777588	  0.826191	  0.048334	
10.3065	  0.836600	  0.839764	  0.049823	
10.378	  0.887527	  0.845242	  0.052670	
10.4496	  0.932704	  0.831543	  0.054941	
10.5212	  0.973968	  0.806470	  0.055081	
10.5927	  0.965099	  0.799165	  0.053071	
10.6643	  0.910644	  0.789779	  0.049845	
10.7359	  0.827787	  0.766337	  0.046595	
10.8075	  0.730683	  0.718408	  0.044222	
10.879	  0.668164	  0.643479	  0.043259	
10.9506	  0.649526	  0.579957	  0.042499	
11.0222	  0.659116	  0.545441	  0.040236	
11.0937	  0.640632	  0.514938	  0.035047	
11.1653	  0.558115	  0.436359	  0.026676	
11.2369	  0.441913	  0.304125	  0.018070	
